<?xml version="1.0" standalone="no"?>
<!DOCTYPE svg PUBLIC "-//W3C//DTD SVG 20010904//EN"
 "http://www.w3.org/TR/2001/REC-SVG-20010904/DTD/svg10.dtd">
<svg version="1.0" xmlns="http://www.w3.org/2000/svg"
 width="312.000000pt" height="367.000000pt" viewBox="0 0 312.000000 367.000000"
 preserveAspectRatio="xMidYMid meet">

<g transform="translate(0.000000,367.000000) scale(0.100000,-0.100000)"
fill="#000000" stroke="none">
<path d="M1327 3445 c-53 -20 -113 -66 -148 -113 -86 -117 -79 -299 16 -410
47 -54 144 -102 222 -109 149 -14 295 83 335 221 7 23 12 73 12 112 0 132 -80
248 -204 295 -60 23 -176 25 -233 4z"/>
<path d="M2177 3120 c-19 -16 -72 -85 -118 -152 -157 -230 -262 -318 -529
-445 -179 -85 -238 -123 -329 -209 -164 -154 -245 -376 -227 -619 11 -142 52
-208 119 -191 14 3 56 37 94 75 134 135 302 287 379 343 44 31 144 91 223 133
288 152 373 235 466 452 52 120 70 223 70 403 0 138 -2 159 -21 195 -18 34
-26 40 -56 43 -28 2 -43 -3 -71 -28z"/>
<path d="M180 850 l0 -460 85 0 85 0 0 165 0 165 89 0 89 0 95 -162 94 -163
98 -3 c76 -2 96 0 92 10 -2 7 -50 88 -105 180 l-100 166 56 34 c157 94 164
362 12 470 -66 48 -131 58 -372 58 l-218 0 0 -460z m458 297 c67 -36 91 -153
46 -223 -33 -50 -81 -64 -214 -64 l-120 0 0 158 0 157 127 -5 c97 -4 136 -10
161 -23z"/>
<path d="M2639 1097 c-100 -28 -192 -123 -224 -230 -20 -67 -19 -201 1 -265
75 -232 398 -309 571 -136 29 29 53 59 53 67 0 12 -91 57 -116 57 -6 0 -21
-12 -35 -26 -67 -71 -175 -79 -257 -17 -35 26 -72 90 -72 123 0 20 5 20 251
20 l252 0 -5 93 c-8 152 -62 241 -177 295 -65 30 -172 39 -242 19z m188 -143
c40 -30 63 -65 70 -107 l6 -37 -172 0 c-191 0 -188 -1 -152 68 22 43 55 76 91
91 38 16 127 7 157 -15z"/>
<path d="M940 1083 c0 -5 61 -159 136 -343 75 -184 139 -347 141 -361 13 -70
-59 -125 -154 -117 l-53 5 0 -67 0 -67 31 -7 c47 -9 119 -7 163 5 52 14 122
81 156 149 43 85 320 779 320 801 0 5 -40 9 -88 9 l-88 0 -21 -62 c-12 -35
-44 -128 -73 -208 -28 -80 -62 -174 -74 -208 l-23 -64 -97 271 -98 271 -89 0
c-49 0 -89 -3 -89 -7z"/>
<path d="M1760 1019 l0 -71 180 4 c99 2 180 2 180 0 0 -2 -86 -106 -289 -345
l-75 -88 1 -62 1 -62 291 -3 291 -2 0 70 0 70 -185 2 -185 3 107 125 c59 69
142 166 185 215 l78 90 0 63 0 62 -290 0 -290 0 0 -71z"/>
</g>
</svg> 