<svg width="181" height="262" viewBox="0 0 181 262" fill="none" xmlns="http://www.w3.org/2000/svg">
<path d="M47.9334 1.9999C40.8667 4.66656 32.8667 10.7999 28.2 17.0666C16.7334 32.6666 17.6667 56.9332 30.3334 71.7332C36.6 78.9332 49.5334 85.3332 59.9334 86.2666C79.8 88.1332 99.2667 75.1999 104.6 56.7999C105.533 53.7332 106.2 47.0666 106.2 41.8666C106.2 24.2666 95.5334 8.7999 79 2.53323C71 -0.533436 55.5334 -0.800102 47.9334 1.9999Z" fill="black"/>
<path d="M161.267 45.3333C158.733 47.4666 151.667 56.6666 145.533 65.6C124.6 96.2666 110.6 108 75.0001 124.933C51.1334 136.267 43.2667 141.333 31.1334 152.8C9.26674 173.333 -1.53326 202.933 0.866735 235.333C2.3334 254.267 7.80007 263.067 16.7334 260.8C18.6001 260.4 24.2001 255.867 29.2667 250.8C47.1334 232.8 69.5334 212.533 79.8001 205.067C85.6667 200.933 99.0001 192.933 109.533 187.333C147.933 167.067 159.267 156 171.667 127.067C178.6 111.067 181 97.3333 181 73.3333C181 54.9333 180.733 52.1333 178.2 47.3333C175.8 42.8 174.733 41.9999 170.733 41.5999C167 41.3333 165 42 161.267 45.3333Z" fill="black"/>
</svg> 